<svg id="Layer_10" data-name="Layer 10" xmlns="http://www.w3.org/2000/svg" viewBox="0 0 24 24"><defs><style>.cls-1{fill:#fff;}</style></defs><path class="cls-1" d="M13,13H10.5v3H13a1.5,1.5,0,0,0,0-3Z"/><path class="cls-1" d="M18.5,3H5.5A2.5,2.5,0,0,0,3,5.5v13A2.5,2.5,0,0,0,5.5,21h13A2.5,2.5,0,0,0,21,18.5V5.5A2.5,2.5,0,0,0,18.5,3ZM15.92,17.1a5,5,0,0,1-3.21.9H7.5V6h4.67a4.9,4.9,0,0,1,3.16,1A2.85,2.85,0,0,1,16.5,9.41,2.9,2.9,0,0,1,16.08,11a2.16,2.16,0,0,1-1,.87,2.46,2.46,0,0,1,1.4.93A2.71,2.71,0,0,1,17,14.45,3.23,3.23,0,0,1,15.92,17.1Z"/><path class="cls-1" d="M14,9.37A1.37,1.37,0,0,0,12.62,8H10.5v2.75h2.12A1.38,1.38,0,0,0,14,9.37Z"/></svg>