<svg id="Layer_13" data-name="Layer 13" xmlns="http://www.w3.org/2000/svg" viewBox="0 0 24 24"><defs><style>.cls-1{fill:#fff;}</style></defs><path class="cls-1" d="M18.16,14.14a2.28,2.28,0,0,1-2.28-2.26l-1.42,0a2.29,2.29,0,0,1-2.29,2.28,1.87,1.87,0,0,1-.34,0,8.41,8.41,0,0,1-1.36,1.64,7.6,7.6,0,0,1-2.73,1.69l-.18.07-.18-.09A2.8,2.8,0,0,1,5.9,14.14,2.68,2.68,0,0,1,5.31,14l-.19.39a8.75,8.75,0,0,0-.91,2.44,3.51,3.51,0,0,0,1.11,3.57c1.82,1.26,3.75.3,6-.81a17.35,17.35,0,0,1,3.47-1.42,13.21,13.21,0,0,1,1.35-.24,6.29,6.29,0,0,0,2.28-.62,2.69,2.69,0,0,0,1.32-1.86,2.79,2.79,0,0,0-.25-1.71A2.34,2.34,0,0,1,18.16,14.14Z"/><path class="cls-1" d="M18.16,13.24a1.39,1.39,0,1,0-1.39-1.39A1.39,1.39,0,0,0,18.16,13.24Z"/><path class="cls-1" d="M6.16,13.25a1.39,1.39,0,1,0-1.4-1.39A1.39,1.39,0,0,0,6.16,13.25Z"/><path class="cls-1" d="M12.17,13.24a1.39,1.39,0,1,0-1.39-1.39A1.39,1.39,0,0,0,12.17,13.24Z"/><path class="cls-1" d="M12.91,9.68,15.13,5.2l2.22,4.51a2.29,2.29,0,0,1,.28-.09L19.87,3H10.39L12.62,9.6Z"/></svg>