<svg id="Layer_8" data-name="Layer 8" xmlns="http://www.w3.org/2000/svg" viewBox="0 0 24 24"><defs><style>.cls-1{fill:#fff;stroke:#fff;stroke-miterlimit:10;stroke-width:0.5px;}</style></defs><path class="cls-1" d="M16.1,3a3.17,3.17,0,0,0-1,.16,7.07,7.07,0,0,0-2.19,1.29,10.88,10.88,0,0,0-.89.81c-.3-.29-.59-.56-.88-.79A7,7,0,0,0,8.91,3.17a2.41,2.41,0,0,0-2,.1A2.37,2.37,0,0,0,5.88,4.93a6.93,6.93,0,0,0,0,2.53c.06.34.13.69.22,1-.33.1-.64.21-.94.32A6.84,6.84,0,0,0,3,10.08a2.43,2.43,0,0,0-.88,1.75A2.43,2.43,0,0,0,3,13.58a6.84,6.84,0,0,0,2.16,1.26c.32.12.66.23,1,.34a12.94,12.94,0,0,0-.3,1.36,7.23,7.23,0,0,0,0,2.54,2.42,2.42,0,0,0,1.08,1.67,2.4,2.4,0,0,0,2,.09,6.91,6.91,0,0,0,2.19-1.28c.3-.24.59-.51.89-.8.3.29.6.56.89.8a7,7,0,0,0,2.19,1.29,2.43,2.43,0,0,0,2-.1,2.44,2.44,0,0,0,1.07-1.66,7.18,7.18,0,0,0,0-2.53,12.56,12.56,0,0,0-.3-1.37c.36-.11.71-.22,1-.35A6.84,6.84,0,0,0,21,13.58a2.43,2.43,0,0,0,.88-1.75A2.43,2.43,0,0,0,21,10.08a6.84,6.84,0,0,0-2.16-1.26c-.3-.11-.62-.22-1-.32.09-.36.17-.71.22-1a7,7,0,0,0,0-2.54A2.41,2.41,0,0,0,17,3.25,2,2,0,0,0,16.1,3Zm0,.87A1.14,1.14,0,0,1,16.6,4a1.52,1.52,0,0,1,.65,1.09,6.31,6.31,0,0,1,0,2.21c-.05.31-.12.63-.2,1a19.89,19.89,0,0,0-2.86-.46,23.22,23.22,0,0,0-1.58-1.94c.28-.27.56-.53.83-.75A6.3,6.3,0,0,1,15.33,4,2.4,2.4,0,0,1,16.06,3.86Zm-8.14,0A2.09,2.09,0,0,1,8.65,4a6.3,6.3,0,0,1,1.91,1.13c.27.22.54.47.82.74A21.61,21.61,0,0,0,9.79,7.81a20.92,20.92,0,0,0-2.85.47c-.08-.33-.15-.65-.2-.95a6.13,6.13,0,0,1,0-2.22A1.54,1.54,0,0,1,7.37,4,1.1,1.1,0,0,1,7.92,3.87ZM12,6.49c.35.38.7.8,1,1.24l-1,0c-.36,0-.71,0-1.06,0C11.29,7.29,11.64,6.87,12,6.49Zm0,2.09c.58,0,1.15,0,1.7.06.38.55.76,1.13,1.11,1.74s.59,1.08.85,1.61c-.26.54-.55,1.09-.86,1.63s-.57.94-.86,1.38c-.63.05-1.28.08-1.94.08s-1.34,0-2-.08c-.29-.44-.58-.89-.85-1.36s-.6-1.09-.86-1.63c.26-.54.55-1.09.86-1.64s.73-1.18,1.11-1.73C10.84,8.6,11.41,8.58,12,8.58Zm2.81.17a18.16,18.16,0,0,1,2,.36A18.76,18.76,0,0,1,16.11,11c-.17-.34-.36-.68-.56-1S15.06,9.14,14.81,8.75Zm-5.66,0c-.25.38-.5.77-.73,1.18s-.39.69-.57,1a18.61,18.61,0,0,1-.68-1.87C7.78,9,8.44,8.85,9.15,8.76Zm8.5.58c.3.09.59.18.86.29a6.28,6.28,0,0,1,1.89,1.08,1.55,1.55,0,0,1,.6,1.12A1.55,1.55,0,0,1,20.4,13,6.28,6.28,0,0,1,18.51,14c-.3.12-.63.23-1,.33A20,20,0,0,0,16.62,12,22,22,0,0,0,17.65,9.34Zm-11.31,0a21,21,0,0,0,1,2.65,21,21,0,0,0-.94,2.36c-.32-.1-.64-.2-.93-.32A6.28,6.28,0,0,1,3.6,13,1.55,1.55,0,0,1,3,11.83a1.55,1.55,0,0,1,.6-1.12A6.28,6.28,0,0,1,5.49,9.63,8.44,8.44,0,0,1,6.34,9.34ZM12,9.86A2.15,2.15,0,1,0,14.14,12,2.15,2.15,0,0,0,12,9.86Zm0,.86A1.29,1.29,0,1,1,10.71,12,1.28,1.28,0,0,1,12,10.72ZM16.13,13c.22.53.42,1.05.58,1.55-.52.12-1.07.22-1.64.3.16-.26.33-.53.49-.81S16,13.36,16.13,13ZM7.86,13q.27.52.57,1.05l.48.8c-.57-.08-1.12-.18-1.63-.3C7.44,14.07,7.63,13.55,7.86,13ZM7,15.4a18.23,18.23,0,0,0,2.51.42,19.43,19.43,0,0,0,1.84,2.31c-.28.27-.56.53-.83.75A6.3,6.3,0,0,1,8.64,20a1.52,1.52,0,0,1-1.27,0,1.55,1.55,0,0,1-.65-1.09,6.16,6.16,0,0,1,0-2.22A11.93,11.93,0,0,1,7,15.4Zm9.93,0a11.93,11.93,0,0,1,.28,1.28,6.4,6.4,0,0,1,0,2.22,1.58,1.58,0,0,1-.66,1.1,1.54,1.54,0,0,1-1.28,0,6.3,6.3,0,0,1-1.91-1.13c-.27-.22-.55-.48-.83-.75a20.83,20.83,0,0,0,1.85-2.33A20.1,20.1,0,0,0,17,15.41Zm-6.3.5c.44,0,.88,0,1.34,0s.87,0,1.3,0A20.48,20.48,0,0,1,12,17.51,18.45,18.45,0,0,1,10.66,15.91Z"/></svg>