<svg id="Layer_14" data-name="Layer 14" xmlns="http://www.w3.org/2000/svg" viewBox="0 0 24 24"><defs><style>.cls-1{fill:#fff;}</style></defs><path class="cls-1" d="M12,5.82c-2.75,0-4.46,1.38-5.15,4.12A3.3,3.3,0,0,1,10.46,8.4a4.34,4.34,0,0,1,2,1.39A6,6,0,0,0,17.15,12a4.86,4.86,0,0,0,5.14-4.12,3.29,3.29,0,0,1-3.6,1.55,4.44,4.44,0,0,1-2-1.4A6,6,0,0,0,12,5.82ZM6.85,12a4.86,4.86,0,0,0-5.14,4.12,3.29,3.29,0,0,1,3.6-1.55,4.44,4.44,0,0,1,2,1.4A6,6,0,0,0,12,18.18c2.75,0,4.46-1.38,5.15-4.12a3.3,3.3,0,0,1-3.61,1.54,4.34,4.34,0,0,1-2-1.39A6,6,0,0,0,6.85,12Z"/></svg>