<svg id="UX" xmlns="http://www.w3.org/2000/svg" viewBox="0 0 24 24"><defs><style>.cls-1{fill:none;}.cls-2{fill:#fff;}</style></defs><rect class="cls-1" x="14.25" y="5.53" width="1.62" height="5.22"/><polygon class="cls-1" points="17.4 13.14 15.69 13.14 14.82 14.7 13.93 13.14 12.2 13.14 13.79 15.57 12.05 18.2 13.79 18.2 14.79 16.58 15.79 18.2 17.55 18.2 15.83 15.59 17.4 13.14"/><path class="cls-1" d="M13,9.51a2.74,2.74,0,0,0,.14-.87V5.53H11.51V8.71a.9.9,0,0,1-.23.67,1,1,0,0,1-1.31,0,1,1,0,0,1-.23-.67V5.53H8.13V8.64a3.12,3.12,0,0,0,.15.88,1.55,1.55,0,0,0,.35.6,1.66,1.66,0,0,0,.55.45,2,2,0,0,0,.75.21,6.23,6.23,0,0,0,.83.06,3.09,3.09,0,0,0,1.12-.18,1.71,1.71,0,0,0,.65-.43A2,2,0,0,0,13,9.51Z"/><path class="cls-1" d="M10,13.14v3.09a.89.89,0,0,1-.23.65.87.87,0,0,1-.63.23.81.81,0,0,1-.87-.88V13.14H6.66v3a2.93,2.93,0,0,0,.15.85,1.55,1.55,0,0,0,.33.58,1.72,1.72,0,0,0,.54.44,2.18,2.18,0,0,0,.73.21,8,8,0,0,0,.8.05,3.22,3.22,0,0,0,1.1-.17A1.84,1.84,0,0,0,11.37,17a2.35,2.35,0,0,0,.14-.84v-3Z"/><path class="cls-2" d="M20.67,2.94H3.33V21.06H20.67ZM14.25,5.53h1.62v5.22H14.25ZM11.51,16.16a2.35,2.35,0,0,1-.14.84,1.84,1.84,0,0,1-1.06,1.12,3.22,3.22,0,0,1-1.1.17,8,8,0,0,1-.8-.05A2.18,2.18,0,0,1,7.68,18a1.72,1.72,0,0,1-.54-.44A1.55,1.55,0,0,1,6.81,17a2.93,2.93,0,0,1-.15-.85v-3H8.22v3.09a.9.9,0,0,0,1.5.65.89.89,0,0,0,.23-.65V13.14h1.56Zm-.75-5.32a6.23,6.23,0,0,1-.83-.06,2,2,0,0,1-.75-.21,1.66,1.66,0,0,1-.55-.45,1.55,1.55,0,0,1-.35-.6,3.12,3.12,0,0,1-.15-.88V5.53H9.74V8.71a1,1,0,0,0,.23.67.89.89,0,0,0,1.54-.67V5.53h1.61V8.64a2.74,2.74,0,0,1-.14.87,2,2,0,0,1-.45.72,1.71,1.71,0,0,1-.65.43A3.09,3.09,0,0,1,10.76,10.84Zm5,7.37-1-1.63-1,1.63H12.05l1.74-2.64L12.2,13.14h1.73l.89,1.56.87-1.56H17.4l-1.57,2.45,1.72,2.62Z"/></svg>