<?xml version="1.0" encoding="utf-8"?>
<!-- Generator: Adobe Illustrator 25.0.0, SVG Export Plug-In . SVG Version: 6.00 Build 0)  -->
<svg version="1.1" xmlns="http://www.w3.org/2000/svg" xmlns:xlink="http://www.w3.org/1999/xlink" x="0px" y="0px"
	 viewBox="0 0 24 24" style="enable-background:new 0 0 24 24;" xml:space="preserve">
<style type="text/css">
	.st0{display:none;}
	.st1{display:inline;}
	.st2{display:inline;fill:#FFFFFF;}
	.st3{fill:#4196c2;}
</style>
<g id="Linkedin" class="st0">
	<path class="st1" d="M19,3H5C3.9,3,3,3.9,3,5v14c0,1.1,0.9,2,2,2h14c1.1,0,2-0.9,2-2V5C21,3.9,20.1,3,19,3z M9,17H6.5v-7H9V17z
		 M7.7,8.7c-0.8,0-1.3-0.5-1.3-1.2s0.5-1.2,1.4-1.2c0.8,0,1.3,0.5,1.3,1.2S8.6,8.7,7.7,8.7z M18,17h-2.4v-3.8c0-1.1-0.7-1.3-0.9-1.3
		s-1.1,0.2-1.1,1.3c0,0.2,0,3.8,0,3.8h-2.5v-7h2.5v1c0.3-0.6,1-1,2.2-1s2.2,1,2.2,3.2V17z"/>
</g>
<g id="HTML" class="st0">
	<path class="st1" d="M19.9,3.2c-0.1-0.2-0.3-0.3-0.6-0.3H4.7C4.5,2.9,4.3,3,4.1,3.2C4,3.4,3.9,3.6,3.9,3.8l1.7,15
		c0,0.3,0.2,0.6,0.5,0.6l5.7,1.6c0.1,0,0.1,0,0.2,0s0.1,0,0.2,0l5.7-1.6c0.3-0.1,0.5-0.3,0.5-0.6l1.7-15C20.1,3.6,20,3.4,19.9,3.2z
		 M16.3,8.6H9.5l0.2,1.9h6.4l-0.5,5.7L12,17.3l0,0l-3.6-1.1l-0.2-2.3H10l0.1,0.9l2,0.4l2-0.4l0.2-2.4H8.1L7.6,6.7h8.8L16.3,8.6z"/>
</g>
<g id="CSS" class="st0">
	<path class="st2" d="M19.9,3.2c-0.1-0.2-0.3-0.3-0.6-0.3H4.7C4.4,2.9,4.2,3,4.1,3.2C4,3.4,3.9,3.6,3.9,3.8l1.7,15
		c0,0.3,0.2,0.6,0.5,0.6l5.7,1.6c0.1,0,0.1,0,0.2,0s0.1,0,0.2,0l5.7-1.6c0.3-0.1,0.5-0.3,0.5-0.6l1.7-15C20.1,3.6,20,3.4,19.9,3.2z
		 M16.2,10.6l-0.3,5.5L12,17.3l-3.8-1.2l-0.1-2.6H10l0,1.2l2,0.7l2-0.7l0.1-2.2H9.9l-0.1-1.9h4.4l0.1-1.9H7.7L7.6,6.7h8.8L16.2,10.6
		z"/>
</g>
<g id="JS" class="st0">
	<path class="st2" d="M20,3.1C19.9,3,19.8,3,19.7,3H4.3C4.2,3,4.1,3,4,3.1S3.9,3.3,3.9,3.4l1.4,15.5c0,0.2,0.1,0.3,0.3,0.3l6.3,1.8
		c0,0,0.1,0,0.1,0s0.1,0,0.1,0l6.3-1.8c0.2,0,0.3-0.2,0.3-0.3l1.4-15.5C20.1,3.3,20.1,3.2,20,3.1z M6.9,13.6l2.8,0.8V6.5h1.6v10.2
		l-4.3-1.2V13.6z M17.1,10.8l-0.4,4.8l-3.9,1.1v-1.8l2.7-0.7l0.1-1.5l-2.8,0.5V6.5h4.7l-0.1,1.6h-3v3.1L17.1,10.8z"/>
</g>
<g id="Layer_6" class="st0">
</g>
<g id="Layer_7">
</g>
<g id="DevOps">
</g>
<g id="Layer_8">
	<path class="st3" d="M1.4,3L12,21L22.6,3h-8.2L12,7.3L9.5,3H1.4z M4.2,4.6h3.1l4.7,8.2l4.7-8.2h3.1L12,17.8L4.2,4.6z"/>
</g>
</svg>
